<?xml version="1.0" encoding="utf-8"?>
<!-- Generator: Adobe Illustrator 27.5.0, SVG Export Plug-In . SVG Version: 6.00 Build 0)  -->
<!DOCTYPE svg PUBLIC "-//W3C//DTD SVG 1.1//EN" "http://www.w3.org/Graphics/SVG/1.1/DTD/svg11.dtd" [
	<!ENTITY ns_extend "http://ns.adobe.com/Extensibility/1.0/">
	<!ENTITY ns_ai "http://ns.adobe.com/AdobeIllustrator/10.0/">
	<!ENTITY ns_graphs "http://ns.adobe.com/Graphs/1.0/">
	<!ENTITY ns_vars "http://ns.adobe.com/Variables/1.0/">
	<!ENTITY ns_imrep "http://ns.adobe.com/ImageReplacement/1.0/">
	<!ENTITY ns_sfw "http://ns.adobe.com/SaveForWeb/1.0/">
	<!ENTITY ns_custom "http://ns.adobe.com/GenericCustomNamespace/1.0/">
	<!ENTITY ns_adobe_xpath "http://ns.adobe.com/XPath/1.0/">
]>
<svg version="1.1" id="Слой_3" xmlns:x="&ns_extend;" xmlns:i="&ns_ai;" xmlns:graph="&ns_graphs;"
	 xmlns="http://www.w3.org/2000/svg" xmlns:xlink="http://www.w3.org/1999/xlink" x="0px" y="0px" viewBox="0 0 425.2 75.3"
	 style="enable-background:new 0 0 425.2 75.3;" xml:space="preserve">
<style type="text/css">
	.st0{fill:#294089;}
</style>
<metadata>
	<sfw  xmlns="&ns_sfw;">
		<slices></slices>
		<sliceSourceBounds  bottomLeftOrigin="true" height="75.3" width="425.2" x="316.3" y="-724.6"></sliceSourceBounds>
	</sfw>
</metadata>
<g>
	<g>
		<g>
			<path class="st0" d="M118.7,43.5l0-17.6l-9.4,17.6h-3.3l-9.3-17.2v17.2h-6.9V11.6h6.1l11.9,21.6l11.8-21.6h6.2v31.9H118.7z"/>
			<path class="st0" d="M286.2,43.5l0-17.6l-9.4,17.6h-3.3l-9.3-17.2v17.2h-6.9V11.6h6.1l11.9,21.6L287,11.6h6.2v31.9H286.2z"/>
			<path class="st0" d="M154.7,27h6.7V40c-1.7,1.3-3.7,2.3-6,3c-2.3,0.7-4.6,1-6.9,1c-3.3,0-6.3-0.7-8.9-2.1
				c-2.6-1.4-4.7-3.4-6.2-5.9c-1.5-2.5-2.3-5.3-2.3-8.5c0-3.2,0.8-6,2.3-8.5s3.6-4.5,6.3-5.9c2.7-1.4,5.7-2.1,9-2.1
				c2.8,0,5.3,0.5,7.6,1.4c2.3,0.9,4.2,2.3,5.7,4.1l-4.7,4.4c-2.3-2.4-5-3.6-8.2-3.6c-2,0-3.8,0.4-5.4,1.3c-1.6,0.8-2.8,2-3.7,3.6
				c-0.9,1.5-1.3,3.3-1.3,5.3c0,2,0.4,3.7,1.3,5.3c0.9,1.5,2.1,2.8,3.7,3.6s3.3,1.3,5.4,1.3c2.1,0,4-0.5,5.7-1.4V27z"/>
			<path class="st0" d="M166.9,27.8h12.9v5.7h-12.9V27.8z"/>
			<path class="st0" d="M192.5,41.9c-2.6-1.4-4.7-3.4-6.2-5.9c-1.5-2.5-2.3-5.3-2.3-8.5c0-3.2,0.8-6,2.3-8.5s3.6-4.5,6.2-5.9
				c2.6-1.4,5.6-2.1,8.9-2.1c2.8,0,5.3,0.5,7.5,1.5c2.2,1,4.1,2.4,5.6,4.2l-4.7,4.4c-2.2-2.5-4.8-3.7-8-3.7c-2,0-3.7,0.4-5.3,1.3
				c-1.5,0.9-2.8,2.1-3.6,3.6c-0.9,1.5-1.3,3.3-1.3,5.3c0,2,0.4,3.7,1.3,5.3c0.9,1.5,2.1,2.8,3.6,3.6c1.5,0.9,3.3,1.3,5.3,1.3
				c3.2,0,5.9-1.3,8-3.8l4.7,4.4c-1.5,1.9-3.4,3.3-5.6,4.2c-2.2,1-4.8,1.5-7.5,1.5C198.1,44,195.1,43.3,192.5,41.9z"/>
			<path class="st0" d="M225.3,41.9c-2.7-1.4-4.7-3.4-6.2-5.9c-1.5-2.5-2.3-5.3-2.3-8.5c0-3.1,0.8-5.9,2.3-8.5s3.6-4.5,6.2-5.9
				c2.7-1.4,5.6-2.1,9-2.1c3.3,0,6.3,0.7,8.9,2.1c2.6,1.4,4.7,3.4,6.2,5.9s2.3,5.3,2.3,8.5c0,3.1-0.8,5.9-2.3,8.5
				c-1.5,2.5-3.6,4.5-6.2,5.9c-2.6,1.4-5.6,2.1-8.9,2.1C230.9,44,227.9,43.3,225.3,41.9z M239.3,36.4c1.5-0.9,2.7-2.1,3.6-3.6
				c0.9-1.5,1.3-3.3,1.3-5.3c0-2-0.4-3.7-1.3-5.3c-0.9-1.5-2.1-2.8-3.6-3.6c-1.5-0.9-3.2-1.3-5.1-1.3c-1.9,0-3.6,0.4-5.1,1.3
				c-1.5,0.9-2.7,2.1-3.6,3.6c-0.9,1.5-1.3,3.3-1.3,5.3c0,2,0.4,3.7,1.3,5.3c0.9,1.5,2.1,2.8,3.6,3.6c1.5,0.9,3.2,1.3,5.1,1.3
				C236.1,37.7,237.8,37.3,239.3,36.4z"/>
			<g>
				<polygon class="st0" points="306.5,43.5 306.5,31.9 322.9,31.9 322.9,25.9 299.2,25.9 299.2,43.5 				"/>
				<rect x="299.2" y="11.6" class="st0" width="25.7" height="5.9"/>
			</g>
			<path class="st0" d="M336,41.9c-2.7-1.4-4.7-3.4-6.2-5.9c-1.5-2.5-2.3-5.3-2.3-8.5c0-3.1,0.8-5.9,2.3-8.5s3.6-4.5,6.2-5.9
				c2.7-1.4,5.6-2.1,9-2.1s6.3,0.7,8.9,2.1c2.6,1.4,4.7,3.4,6.2,5.9c1.5,2.5,2.3,5.3,2.3,8.5c0,3.1-0.8,5.9-2.3,8.5
				c-1.5,2.5-3.6,4.5-6.2,5.9c-2.6,1.4-5.6,2.1-8.9,2.1S338.7,43.3,336,41.9z M350.1,36.4c1.5-0.9,2.7-2.1,3.6-3.6
				c0.9-1.5,1.3-3.3,1.3-5.3c0-2-0.4-3.7-1.3-5.3c-0.9-1.5-2.1-2.8-3.6-3.6c-1.5-0.9-3.2-1.3-5.1-1.3s-3.6,0.4-5.1,1.3
				c-1.5,0.9-2.7,2.1-3.6,3.6c-0.9,1.5-1.3,3.3-1.3,5.3c0,2,0.4,3.7,1.3,5.3c0.9,1.5,2.1,2.8,3.6,3.6c1.5,0.9,3.2,1.3,5.1,1.3
				S348.6,37.3,350.1,36.4z"/>
			<g>
				<path class="st0" d="M389.1,33.2c2.1-0.9,3.7-2.2,4.9-3.9c1.1-1.7,1.7-3.8,1.7-6.1c0-2.4-0.6-4.4-1.7-6.2
					c-1.1-1.7-2.7-3.1-4.8-4c-2.1-0.9-4.5-1.4-7.4-1.4H368v6h13.4c2.2,0,3.9,0.5,5.1,1.4c1.2,1,1.7,2.3,1.7,4.1
					c0,1.8-0.6,3.1-1.7,4.1c-1.2,1-2.8,1.5-5.1,1.5H368v14.8h7.4v-8.9h6.4h0.4l6.1,8.9h7.9L389.1,33.2z"/>
			</g>
			<path class="st0" d="M407.6,17.6h-10.2v-6h27.8v6H415v25.9h-7.4V17.6z"/>
		</g>
		<g>
			<polygon class="st0" points="97.9,51.8 96.3,51.8 93,56.2 91,56.2 91,51.8 89.7,51.8 89.7,62 91,62 91,57.5 93,57.5 96.5,62 
				98.1,62 94.1,56.8 			"/>
			<path class="st0" d="M112.9,52.4c-0.8-0.4-1.7-0.7-2.7-0.7c-1,0-1.9,0.2-2.7,0.7c-0.8,0.4-1.5,1.1-1.9,1.9
				c-0.5,0.8-0.7,1.7-0.7,2.6c0,1,0.2,1.9,0.7,2.6c0.5,0.8,1.1,1.4,1.9,1.9c0.8,0.4,1.7,0.7,2.7,0.7c1,0,1.9-0.2,2.7-0.7
				c0.8-0.4,1.4-1.1,1.9-1.9c0.5-0.8,0.7-1.7,0.7-2.7c0-1-0.2-1.9-0.7-2.7C114.3,53.5,113.7,52.9,112.9,52.4z M114.1,56.9
				c0,0.7-0.2,1.4-0.5,2c-0.3,0.6-0.8,1.1-1.4,1.4c-0.6,0.3-1.3,0.5-2,0.5c-0.7,0-1.4-0.2-2-0.5c-0.6-0.3-1.1-0.8-1.4-1.4
				c-0.3-0.6-0.5-1.3-0.5-2c0-0.7,0.2-1.4,0.5-2c0.3-0.6,0.8-1.1,1.4-1.4c0.6-0.3,1.3-0.5,2-0.5c0.7,0,1.4,0.2,2,0.5
				c0.6,0.3,1.1,0.8,1.4,1.4C113.9,55.5,114.1,56.2,114.1,56.9z"/>
			<polygon class="st0" points="129.4,59 125.3,51.9 125.2,51.8 124.1,51.8 124.1,62 125.4,62 125.4,54.6 129,60.7 129,60.8 
				129.7,60.8 133.3,54.6 133.3,62 134.6,62 134.6,51.8 133.5,51.8 			"/>
			<path class="st0" d="M149.7,52.5v-1h-1.3v1c-1.6,0.1-2.9,0.5-3.8,1.2c-1,0.8-1.4,1.8-1.4,3.2c0,1.3,0.5,2.4,1.4,3.2
				c0.9,0.7,2.2,1.1,3.8,1.2v1h1.3v-1c1.6-0.1,2.9-0.5,3.8-1.2c1-0.8,1.4-1.9,1.4-3.2c0-1.3-0.5-2.4-1.5-3.2
				C152.6,53,151.3,52.6,149.7,52.5z M149.7,53.7c1.2,0.1,2.2,0.4,2.9,0.9c0.7,0.6,1.1,1.3,1.1,2.3c0,1-0.4,1.8-1,2.3
				c-0.7,0.5-1.6,0.8-2.9,0.9V53.7z M144.5,56.9c0-1,0.4-1.8,1-2.3c0.7-0.5,1.6-0.8,2.9-0.9v6.5c-1.2-0.1-2.2-0.4-2.9-0.9
				C144.8,58.7,144.5,57.9,144.5,56.9z"/>
			<path class="st0" d="M170.7,52.4c-0.8-0.4-1.7-0.7-2.7-0.7c-1,0-1.9,0.2-2.7,0.7c-0.8,0.4-1.5,1.1-1.9,1.9
				c-0.5,0.8-0.7,1.7-0.7,2.6s0.2,1.9,0.7,2.6c0.5,0.8,1.1,1.4,1.9,1.9c0.8,0.4,1.7,0.7,2.7,0.7c1,0,1.9-0.2,2.7-0.7
				c0.8-0.4,1.4-1.1,1.9-1.9c0.5-0.8,0.7-1.7,0.7-2.7c0-1-0.2-1.9-0.7-2.7C172.1,53.5,171.5,52.9,170.7,52.4z M171.9,56.9
				c0,0.7-0.2,1.4-0.5,2c-0.3,0.6-0.8,1.1-1.4,1.4c-0.6,0.3-1.3,0.5-2,0.5c-0.7,0-1.4-0.2-2-0.5c-0.6-0.3-1.1-0.8-1.4-1.4
				c-0.3-0.6-0.5-1.3-0.5-2c0-0.7,0.2-1.4,0.5-2c0.3-0.6,0.8-1.1,1.4-1.4c0.6-0.3,1.3-0.5,2-0.5c0.7,0,1.4,0.2,2,0.5
				c0.6,0.3,1.1,0.8,1.4,1.4C171.7,55.5,171.9,56.2,171.9,56.9z"/>
			<path class="st0" d="M185.8,51.8h-3.9V62h1.4v-3.1h2.5c1.3,0,2.3-0.3,3.1-0.9c0.7-0.6,1.1-1.5,1.1-2.6c0-1.1-0.4-2-1.1-2.6
				C188.1,52.1,187,51.8,185.8,51.8z M188.6,55.4c0,0.7-0.2,1.3-0.7,1.7c-0.5,0.4-1.2,0.6-2.1,0.6h-2.4v-4.6h2.4
				c0.9,0,1.6,0.2,2.1,0.6C188.3,54.1,188.6,54.6,188.6,55.4z"/>
			<polygon class="st0" points="196.4,53.1 199.8,53.1 199.8,62 201.2,62 201.2,53.1 204.7,53.1 204.7,51.8 196.4,51.8 			"/>
			<path class="st0" d="M229.3,56.7c0.3-0.2,0.6-0.4,0.8-0.7c0.3-0.4,0.5-0.9,0.5-1.5c0-0.9-0.3-1.5-1-2c-0.6-0.5-1.5-0.7-2.6-0.7
				h-4.3V62h4.5c1.2,0,2.1-0.2,2.8-0.7c0.6-0.5,1-1.2,1-2.1c0-0.7-0.2-1.3-0.6-1.7C230.2,57.1,229.8,56.9,229.3,56.7z M229.7,59.1
				c0,1.2-0.8,1.7-2.4,1.7h-3.2v-3.4h3.2C228.9,57.4,229.7,58,229.7,59.1z M224.1,56.3V53h2.8c0.7,0,1.3,0.1,1.6,0.4
				c0.4,0.3,0.5,0.7,0.5,1.2c0,0.5-0.2,0.9-0.5,1.2c-0.4,0.3-0.9,0.4-1.7,0.4H224.1z"/>
			<path class="st0" d="M256.4,56.7c0.3-0.2,0.6-0.4,0.8-0.7c0.3-0.4,0.5-0.9,0.5-1.5c0-0.9-0.3-1.5-1-2c-0.6-0.5-1.5-0.7-2.6-0.7
				h-4.3V62h4.5c1.2,0,2.1-0.2,2.8-0.7c0.6-0.5,1-1.2,1-2.1c0-0.7-0.2-1.3-0.6-1.7C257.3,57.1,256.9,56.9,256.4,56.7z M256.8,59.1
				c0,1.2-0.8,1.7-2.4,1.7h-3.2v-3.4h3.2C256.1,57.4,256.8,58,256.8,59.1z M251.3,56.3V53h2.8c0.7,0,1.3,0.1,1.6,0.4
				c0.4,0.3,0.5,0.7,0.5,1.2c0,0.5-0.2,0.9-0.5,1.2c-0.4,0.3-0.9,0.4-1.6,0.4H251.3z"/>
			<path class="st0" d="M271.3,51.8H270L265.4,62h1.5l1.2-2.6h5.3l1.2,2.6h1.5L271.3,51.8L271.3,51.8z M272.8,58.2h-4.2l2.1-4.7
				L272.8,58.2z"/>
			<polygon class="st0" points="294.9,60.8 290.8,60.8 290.8,51.8 289.4,51.8 289.4,60.8 285.2,60.8 285.2,51.8 283.9,51.8 
				283.9,62 296.3,62 296.3,51.8 294.9,51.8 			"/>
			<polygon class="st0" points="307.1,57.5 312.2,57.5 312.2,56.2 307.1,56.2 307.1,53.1 312.8,53.1 312.8,51.8 305.7,51.8 
				305.7,62 313,62 313,60.8 307.1,60.8 			"/>
			<polygon class="st0" points="326.8,59 322.6,51.9 322.6,51.8 321.5,51.8 321.5,62 322.8,62 322.8,54.6 326.3,60.7 326.4,60.8 
				327.1,60.8 330.7,54.6 330.7,62 332,62 332,51.8 330.9,51.8 			"/>
			<path class="st0" d="M359.5,51.8h-7l-0.1,3.4c-0.1,1.8-0.2,3.2-0.5,4.2c-0.2,0.9-0.6,1.4-1.2,1.4h-0.7l0,3.4h1.3l0-2.2h8.3v2.2
				h1.3v-3.4h-1.5V51.8z M358.2,53.1v7.7h-5.5c0.3-0.4,0.5-1,0.7-1.7c0.2-1,0.3-2.2,0.3-3.7l0.1-2.2H358.2z"/>
			<path class="st0" d="M376.5,52.4c-0.8-0.4-1.7-0.7-2.7-0.7c-1,0-1.9,0.2-2.7,0.7c-0.8,0.4-1.5,1.1-1.9,1.9
				c-0.5,0.8-0.7,1.7-0.7,2.6c0,1,0.2,1.9,0.7,2.6c0.5,0.8,1.1,1.4,1.9,1.9c0.8,0.4,1.7,0.7,2.7,0.7c1,0,1.9-0.2,2.7-0.7
				c0.8-0.4,1.4-1.1,1.9-1.9c0.5-0.8,0.7-1.7,0.7-2.7c0-1-0.2-1.9-0.7-2.7C377.9,53.5,377.3,52.9,376.5,52.4z M377.7,56.9
				c0,0.7-0.2,1.4-0.5,2c-0.3,0.6-0.8,1.1-1.4,1.4c-0.6,0.3-1.3,0.5-2,0.5s-1.4-0.2-2-0.5c-0.6-0.3-1.1-0.8-1.4-1.4
				c-0.3-0.6-0.5-1.3-0.5-2c0-0.7,0.2-1.4,0.5-2c0.3-0.6,0.8-1.1,1.4-1.4c0.6-0.3,1.3-0.5,2-0.5c0.7,0,1.4,0.2,2,0.5
				c0.6,0.3,1.1,0.8,1.4,1.4C377.5,55.5,377.7,56.2,377.7,56.9z"/>
			<polygon class="st0" points="393,59 388.9,51.9 388.8,51.8 387.7,51.8 387.7,62 389,62 389,54.6 392.6,60.7 392.6,60.8 
				393.3,60.8 396.9,54.6 396.9,62 398.2,62 398.2,51.8 397.1,51.8 			"/>
			<polygon class="st0" points="409.1,60.8 409.1,57.5 414.2,57.5 414.2,56.2 409.1,56.2 409.1,53.1 414.8,53.1 414.8,51.8 
				407.7,51.8 407.7,62 415,62 415,60.8 			"/>
		</g>
	</g>
	<polygon class="st0" points="35.7,0 3.1,18.8 3.1,46.3 13.3,40.4 13.3,24.7 35.7,11.8 49.8,19.9 27.4,32.8 27.4,42.4 35.7,47.3 
		44,42.4 58.1,34.3 58.1,50.6 35.7,63.5 22.1,55.6 11.9,61.5 11.9,61.5 0,68.4 19.6,66 35.7,75.3 68.3,56.4 68.3,18.8 	"/>
</g>
</svg>
